<svg width="53" height="63" viewBox="0 0 53 63" fill="none" xmlns="http://www.w3.org/2000/svg">
<path fill-rule="evenodd" clip-rule="evenodd" d="M26.076 39.0332C25.6696 39.0978 25.2444 39.3184 24.9096 39.6382C24.123 40.39 24.0082 41.3357 24.583 42.3302C24.6853 42.5074 25.1516 42.8943 25.4169 43.0223C25.8382 43.2255 26.4064 43.3504 27.2969 43.4355C28.272 43.5286 28.6069 43.6966 28.9458 44.2628C29.1501 44.6041 29.2154 44.9011 29.2154 45.4889C29.2154 46.0721 29.1473 46.3908 28.951 46.726C28.7781 47.0213 28.6075 47.1936 28.3608 47.3218C28.1081 47.4533 27.9054 47.4976 27.2969 47.5546C26.4949 47.6297 25.8271 47.7735 25.4408 47.9543C24.7705 48.2679 24.296 48.9565 24.2301 49.7112C24.1463 50.6719 24.8975 51.6579 25.9173 51.9257C26.2308 52.0081 26.8959 51.999 27.2107 51.9082C28.1723 51.6306 28.674 50.9383 28.9759 49.4721C29.1469 48.6417 29.2888 48.3628 29.6631 48.122C29.9019 47.9684 30.1661 47.9008 30.8321 47.8233C31.5202 47.7431 32.202 47.6176 32.5235 47.5119C33.1451 47.3075 33.6806 46.7894 33.8703 46.2089C34.1072 45.4835 33.9759 44.7103 33.5231 44.1648C33.2263 43.8073 32.9259 43.6144 32.4273 43.4612C32.0049 43.3315 31.7838 43.29 30.983 43.1901C29.9585 43.0624 29.7639 43.0009 29.4595 42.7093C29.2202 42.48 29.107 42.1996 28.9796 41.5208C28.8963 41.0765 28.6985 40.4663 28.5257 40.1203C28.1278 39.3235 27.1051 38.8696 26.076 39.0332ZM21.0721 43.4193C20.0872 43.6723 19.3859 44.5449 19.3859 45.5171C19.3859 46.7142 20.3965 47.68 21.6492 47.68C22.896 47.68 23.9126 46.7084 23.9126 45.5171C23.9126 44.5275 23.2124 43.6695 22.2 43.4189C21.8789 43.3393 21.3823 43.3395 21.0721 43.4193ZM15.6836 47.745C14.266 48.1093 13.5825 49.6207 14.269 50.8729C14.5527 51.3905 15.1883 51.8461 15.7945 51.9663C16.1288 52.0327 16.6742 51.9966 17.01 51.8859C18.5745 51.3702 19.037 49.4316 17.8609 48.3186C17.5647 48.0383 17.117 47.7962 16.7647 47.7257C16.4554 47.6638 15.9653 47.6726 15.6836 47.745ZM36.1527 47.7395C35.5954 47.8864 34.9879 48.3525 34.7386 48.8244C33.9805 50.2596 34.951 51.9036 36.6109 51.996C37.2734 52.0328 37.8723 51.8154 38.3346 51.3701C39.574 50.1764 38.999 48.1667 37.2967 47.7429C36.9964 47.6682 36.4296 47.6665 36.1527 47.7395Z" fill="#FF3637"/>
<g filter="url(#filter0_d_718_7)">
<path fill-rule="evenodd" clip-rule="evenodd" d="M24.4403 0.108604C24.3798 0.169526 24.1227 0.230743 23.8687 0.244643C21.9015 0.351404 21.062 0.676122 19.9182 1.77212C19.4807 2.19148 19.0887 2.46148 19.0381 2.37838C18.8676 2.09906 18.5463 2.38223 18.2458 3.07661C18.0812 3.45708 17.7794 3.96796 17.5754 4.21195L17.2043 4.65555L17.4913 3.95318C17.6491 3.56695 17.7277 3.2508 17.6662 3.2508C17.6044 3.2508 17.3475 3.46713 17.095 3.73138C16.6207 4.22806 16.1368 5.21228 15.9865 5.98637C15.922 6.31789 15.9734 6.26184 16.1895 5.76456C16.6995 4.59152 16.7846 4.44883 16.693 4.92038C16.5375 5.71932 16.0045 6.98492 15.8973 6.80925C15.7591 6.58272 15.3389 7.69646 15.1694 8.73849C15.0982 9.17662 14.9689 9.72255 14.882 9.95145C14.6666 10.5191 14.6737 10.7544 14.8992 10.5259C15.2722 10.148 15.3807 10.3585 15.3807 11.4602C15.3807 12.3809 15.3497 12.5288 15.1998 12.3212C14.9304 11.9478 14.8847 12.1131 15.0298 12.9362C15.2421 14.141 15.5195 15.0406 15.7675 15.3282C16.3287 15.9793 16.4304 16.5589 15.9831 16.5589C15.8825 16.5589 15.6072 16.7629 15.3716 17.012C14.9637 17.4432 14.9431 17.527 14.9475 18.7495C14.95 19.4558 14.9904 20.2488 15.0374 20.5116C15.1309 21.0339 15.8085 22.0301 16.0703 22.0301C16.1605 22.0301 16.0751 21.8489 15.8804 21.6276C15.6557 21.3719 15.7469 21.4203 16.1305 21.7601C16.4625 22.0543 16.932 22.339 17.1736 22.3928C17.657 22.5003 17.7823 22.7731 17.7883 23.7305C17.7933 24.5123 18.0894 25.6029 18.5841 26.6604C18.8052 27.1331 18.9629 27.5364 18.9346 27.5565C18.5565 27.8235 16.3067 29.0705 14.248 30.1541C12.8224 30.9044 11.2662 31.8152 10.7899 32.1781C9.74082 32.977 8.93017 34.1647 8.3088 35.8129C8.05459 36.487 6.98156 39.3676 5.92415 42.2141L4.00181 47.3895L4.00005 48.7975C3.9983 50.0926 4.03668 50.2846 4.47841 51.1938C4.83098 51.9193 5.23609 52.4389 6.00032 53.1457C6.57325 53.6753 7.24351 54.2038 7.49013 54.32C7.83642 54.4831 9.0332 54.5512 12.754 54.6193C28.3613 54.905 41.1298 54.9794 41.9819 54.7898C42.2406 54.7323 42.4625 54.7564 42.5186 54.8481C42.6428 55.0518 44.1753 55.0502 44.7544 54.8457C45.0019 54.7583 45.3107 54.5223 45.4407 54.3212C45.5707 54.1203 46.0327 53.7252 46.4675 53.4433C47.5063 52.7701 47.9558 52.2796 48.3574 51.3819C48.7832 50.4302 48.926 49.7531 48.763 49.4581C48.6863 49.3193 48.6925 48.9316 48.778 48.5084C48.9033 47.8885 48.867 47.6027 48.5057 46.363C48.2764 45.5763 47.9739 44.7982 47.8334 44.6341C47.6928 44.47 47.5061 43.9913 47.4183 43.5706C47.2402 42.7161 46.8475 41.6186 46.2452 40.2918C45.4445 38.5283 45.2565 38.0627 45.0805 37.4084C44.9822 37.0424 44.7443 36.4039 44.5518 35.9894C44.3595 35.5748 44.202 35.1557 44.202 35.0578C44.202 34.4535 42.5393 32.3709 41.4435 31.6029C41.0902 31.3552 39.1668 30.3243 37.1694 29.312C34.0324 27.7221 33.5628 27.4409 33.7213 27.2473C34.1588 26.7132 34.8625 24.3656 34.8625 23.4401C34.8625 22.6922 34.8812 22.6547 35.2946 22.571C36.2977 22.3676 37.3372 20.8952 37.5615 19.3593C37.6511 18.7462 37.5012 17.4325 37.2741 16.8411C37.2076 16.6675 37.31 16.5691 37.6649 16.4667C38.4019 16.2539 38.3858 15.6796 37.5982 14.0711C37.2468 13.3533 36.7829 12.5318 36.5675 12.2456C36.3521 11.9595 36.1759 11.687 36.1759 11.6403C36.1759 11.5935 36.4088 11.6204 36.6935 11.7C36.978 11.7797 37.4214 11.8242 37.6785 11.7991C38.0711 11.7606 38.1535 11.6856 38.1936 11.3309C38.264 10.7075 37.7961 8.72666 37.4367 8.12646C36.8871 7.20879 36.1083 6.21985 35.9304 6.21393C35.8355 6.21083 35.6292 6.02511 35.472 5.80123C35.0653 5.22248 33.4451 4.28588 32.8507 4.28588C32.5509 4.28588 32.4005 4.22688 32.4583 4.13195C32.5099 4.04737 32.6616 4.01203 32.7952 4.05358C32.9289 4.09498 33.2025 3.99 33.4032 3.82024L33.768 3.5115L33.354 3.76258C33.1263 3.90068 32.9055 3.97876 32.8632 3.93603C32.7827 3.8544 33.682 3.25228 33.8861 3.25139C33.951 3.2511 33.9635 3.31734 33.9139 3.39867C33.7716 3.63201 34.0272 3.56532 34.4056 3.27062C35.2203 2.63582 33.9103 1.8987 31.2309 1.48452C29.4846 1.21466 27.8266 1.26227 26.9457 1.60754C26.7251 1.69405 26.5444 1.73161 26.5444 1.69109C26.5444 1.65057 26.3836 1.72421 26.187 1.85463C25.8342 2.089 25.8307 2.08679 25.901 1.6732C25.9401 1.44297 26.0119 1.12209 26.0605 0.96003C26.1364 0.706436 26.117 0.69224 25.9203 0.857557C25.7224 1.02391 25.7031 1.00602 25.776 0.72344C25.8324 0.504595 25.7714 0.331294 25.5908 0.197325C25.2994 -0.0184148 24.6181 -0.0710556 24.4403 0.108604ZM19.2479 1.69819C19.0594 1.90151 18.9366 2.06786 18.9752 2.06786C19.0137 2.06786 19.2678 1.90151 19.5398 1.69819C19.8201 1.48866 19.9382 1.32852 19.8125 1.32852C19.6905 1.32852 19.4364 1.49487 19.2479 1.69819ZM22.9227 1.49398C22.117 1.62972 20.7072 2.17654 20.7072 2.35339C20.7072 2.40899 20.4304 2.5783 20.0921 2.72957C19.0616 3.19033 18.2251 4.18755 17.3817 5.96152C16.0781 8.70359 15.9532 9.38127 16.2467 12.1229C16.334 12.9379 16.7439 14.7962 16.9936 15.5082C17.0373 15.6327 17.4661 15.1353 18.0771 14.2513C18.6331 13.4466 19.3703 12.3978 19.7153 11.9205C20.7708 10.4597 21.0874 9.98502 21.109 9.83094C21.1624 9.44914 21.6177 9.67154 22.4699 10.4959C23.0697 11.0761 23.5053 11.3837 23.6956 11.3614C24.1027 11.3138 25.1817 11.8971 24.9523 12.0407C24.8232 12.1216 24.8467 12.2058 25.0399 12.3542C25.4019 12.6323 25.4876 12.6166 25.602 12.2512C25.6761 12.0145 25.7304 11.9846 25.82 12.1315C25.8856 12.239 26.1576 12.4313 26.4243 12.5591C26.6909 12.6867 26.9093 12.8903 26.9093 13.0114C26.9093 13.1595 27.0772 13.2412 27.42 13.2603C27.8733 13.2854 27.8898 13.2746 27.5659 13.1642L27.2011 13.0395L27.5921 13.0249C28.0096 13.0091 28.4998 13.3864 28.3598 13.6159C28.3134 13.6921 28.2276 13.7243 28.1691 13.6876C28.1106 13.6511 27.9674 13.6885 27.8508 13.771C27.6987 13.8785 27.8137 13.9007 28.2591 13.8493C28.728 13.7951 28.8793 13.8283 28.8793 13.9853C28.8793 14.1354 29.0771 14.1931 29.5912 14.1931C30.0434 14.1931 30.3687 14.2733 30.4832 14.4132C30.5825 14.5343 30.7218 14.5969 30.7929 14.5524C30.8641 14.5079 30.9224 14.549 30.9224 14.6438C30.9224 14.7385 31.0188 14.7786 31.1366 14.7329C31.2543 14.6871 31.3898 14.7134 31.4373 14.7915C31.4851 14.8695 31.6796 14.8939 31.8696 14.8456C32.1715 14.7688 32.2045 14.7998 32.1295 15.0902C32.0533 15.3855 32.0831 15.4104 32.3951 15.3132C32.8485 15.1718 33.5824 15.1952 34.4977 15.38C35.1789 15.5177 36.7044 15.4813 36.8598 15.3237C36.8979 15.2851 36.8582 15.119 36.7714 14.9547C36.6846 14.7904 36.6136 14.5158 36.6136 14.3445C36.6136 14.1731 36.4768 13.8859 36.3094 13.7063C36.1421 13.5268 35.8315 13.0803 35.619 12.7144C35.4065 12.3484 35.0236 11.836 34.7679 11.5758C33.9831 10.7769 33.9714 10.1474 34.7421 10.1765C34.9287 10.1835 35.5411 10.3176 36.1029 10.4745C36.6647 10.6312 37.1492 10.7362 37.1796 10.7075C37.329 10.5669 36.8245 9.15326 36.3168 8.28971C35.2404 6.45866 34.5657 5.98622 32.1136 5.34639C31.2066 5.1098 30.3958 4.8466 30.3121 4.76172C30.0856 4.53223 30.5892 3.92227 31.3092 3.55423C31.9609 3.22123 32.2404 2.82731 31.8261 2.82613C31.4508 2.82494 28.8656 2.52728 28.3686 2.42792C28.0752 2.36936 27.9948 2.38622 28.125 2.47908C28.2642 2.57845 28.14 2.65031 27.6872 2.73282C27.3396 2.79611 26.9202 2.83574 26.7552 2.8208C26.5901 2.80572 26.2917 2.92372 26.0922 3.08268C25.8924 3.24193 25.4371 3.39453 25.079 3.42218L24.4284 3.47261L24.4484 2.40056C24.4711 1.17902 24.5417 1.22102 22.9227 1.49398ZM25.3268 1.95045C25.248 2.25609 25.309 2.48928 25.4319 2.35132C25.5804 2.18438 25.6713 1.62425 25.5498 1.62425C25.4734 1.62425 25.3732 1.77109 25.3268 1.95045ZM30.4573 2.46459C30.5625 2.50732 30.6884 2.502 30.7369 2.45291C30.7853 2.40381 30.6992 2.36892 30.5454 2.37528C30.3754 2.38237 30.3408 2.41742 30.4573 2.46459ZM21.3465 11.0321C21.422 11.2734 21.3283 11.4495 20.9406 11.7945C20.6633 12.0411 20.4704 12.2773 20.5118 12.3191C20.6293 12.4381 19.9453 13.3058 19.734 13.3058C19.6302 13.3058 19.5012 13.4889 19.4472 13.7125C19.3934 13.9361 19.2212 14.2522 19.0646 14.4149C18.5696 14.9293 17.4967 16.545 17.4967 16.7763C17.4967 16.9155 17.256 17.0598 16.852 17.1628C16.4974 17.2532 16.0612 17.4849 15.8826 17.6776C15.6087 17.973 15.5707 18.1385 15.6408 18.7351C15.7543 19.7038 16.1521 20.8545 16.5095 21.2474C16.6813 21.4364 17.1269 21.6412 17.5687 21.734L18.3312 21.8945L18.4107 22.9613C18.4586 23.6026 18.7093 24.7023 19.0394 25.7186C19.5732 27.3628 19.6165 27.4379 20.622 28.4586C21.8945 29.7507 23.0679 30.376 24.7933 30.6818C26.3306 30.9544 26.8305 30.953 27.1925 30.6756C27.3484 30.5563 27.7489 30.4586 28.0828 30.4586C28.7719 30.4586 29.609 30.2035 29.609 29.9934C29.609 29.9162 29.7873 29.6855 30.0052 29.481C30.3237 29.1817 30.4166 29.152 30.4795 29.3291C30.5473 29.5206 30.5944 29.522 30.8408 29.3386C31.1213 29.1298 31.1213 29.1255 30.8408 28.9107C30.6241 28.7446 30.6089 28.6918 30.7764 28.6864C30.8968 28.6824 31.1534 28.5102 31.3466 28.3038C31.61 28.0226 31.7269 27.9761 31.8134 28.1181C31.8961 28.2535 31.9677 28.2034 32.0653 27.9412C32.2223 27.5198 32.1391 27.3314 31.9382 27.6533C31.8204 27.8419 31.8022 27.8404 31.8001 27.6417C31.7975 27.3632 32.0789 27.0576 32.3379 27.0576C32.4422 27.0576 32.5286 27.2072 32.5298 27.3903C32.5315 27.634 32.5657 27.6692 32.6579 27.5217C32.7271 27.4111 32.7513 27.1948 32.7116 27.0412C32.6629 26.8523 32.716 26.7618 32.8753 26.7618C33.0448 26.7618 33.1113 26.6248 33.1113 26.2755C33.1113 26.0082 33.2426 25.5282 33.4032 25.2092C33.5637 24.8901 33.658 24.5106 33.6126 24.3656C33.5514 24.1706 33.5895 24.1252 33.7585 24.1909C33.9094 24.2496 33.9869 24.1962 33.9869 24.0334C33.9869 23.8979 33.9377 23.8179 33.8774 23.8558C33.8172 23.8936 33.7868 23.5815 33.8097 23.1621C33.8817 21.8498 33.917 21.7834 34.6035 21.6722C34.9448 21.6169 35.387 21.4253 35.5862 21.2464C35.8615 20.999 35.8968 20.9888 35.7337 21.2039C35.5449 21.4529 35.545 21.4781 35.7349 21.4145C35.8535 21.3747 36.032 21.0572 36.1315 20.7089C36.231 20.3605 36.3952 19.9746 36.4963 19.8511C36.6167 19.7041 36.6649 19.263 36.6361 18.5734C36.5744 17.0976 36.2482 16.7697 34.5611 16.4869C31.665 16.0018 30.3064 15.6478 28.0037 14.7786C26.9189 14.3692 25.3714 13.6221 25.2311 13.4403C25.1909 13.3882 25.0069 13.2979 24.822 13.2394C24.2327 13.053 22.7006 12.117 22.493 11.8164C22.3826 11.657 22.2373 11.561 22.1699 11.6033C22.1023 11.6456 21.8674 11.4637 21.6477 11.1992C21.35 10.8407 21.2733 10.7981 21.3465 11.0321ZM29.2442 13.8973C29.2938 13.9786 29.3632 14.0452 29.3987 14.0452C29.4342 14.0452 29.463 13.9786 29.463 13.8973C29.463 13.816 29.3934 13.7494 29.3085 13.7494C29.2236 13.7494 29.1945 13.816 29.2442 13.8973ZM32.3817 15.089C32.3817 15.175 32.4473 15.2045 32.5276 15.1542C32.6079 15.1039 32.6735 15.0335 32.6735 14.9976C32.6735 14.9617 32.6079 14.9324 32.5276 14.9324C32.4473 14.9324 32.3817 15.0029 32.3817 15.089ZM36.7596 15.5239C36.5709 15.6473 36.5748 15.6674 36.7875 15.6695C36.9232 15.6707 37.0748 15.6052 37.1244 15.5239C37.2385 15.3367 37.0453 15.3367 36.7596 15.5239ZM19.9046 17.0219C19.6638 17.091 19.2609 17.1087 19.0093 17.0617C18.7421 17.0116 18.5101 17.0441 18.4519 17.1396C18.3481 17.3097 18.9703 19.4208 19.3344 20.1344C19.449 20.3589 19.6691 20.6111 19.8236 20.6948C19.978 20.7787 20.9862 20.8471 22.0642 20.8471C24.5277 20.8471 24.593 20.8073 25.0926 19.0028L25.4451 17.7289L26.1735 17.7723L26.9017 17.8158L27.271 19.0331C27.4915 19.7595 27.7878 20.3997 28.0058 20.6206C28.3429 20.9623 28.5006 20.9963 30.0481 21.0617C31.9102 21.1403 32.6156 21.0132 33.0735 20.516C33.4026 20.1588 34.1614 17.4367 34.004 17.1785C33.8793 16.9742 20.8714 16.8736 20.8038 17.0765C20.7724 17.1711 20.6805 17.1653 20.5486 17.0605C20.4156 16.9549 20.1867 16.9412 19.9046 17.0219ZM29.0982 17.7474C28.9377 17.8087 28.5602 17.8266 28.2591 17.7871C27.9582 17.7478 27.7119 17.7752 27.7119 17.8479C27.7119 18.0849 28.3325 19.8809 28.4802 20.0713C28.6416 20.2793 32.04 20.3217 32.3625 20.1198C32.4634 20.0566 32.7322 19.4592 32.9603 18.792L33.3747 17.5789L31.3825 17.6075C30.2867 17.6231 29.2587 17.6861 29.0982 17.7474ZM19.2479 17.8284C19.2479 17.8707 19.3522 18.3699 19.4796 18.9377C19.801 20.3694 19.9443 20.4483 22.0968 20.38C23.9707 20.3207 23.8811 20.3702 24.3415 19.1401C24.881 17.699 25.0916 17.8203 21.9841 17.7836C20.4793 17.766 19.2479 17.7861 19.2479 17.8284ZM15.1618 20.6812C15.1618 20.7525 15.2712 20.9023 15.4047 21.0139C15.6247 21.1979 15.6312 21.1857 15.4725 20.8841C15.2916 20.54 15.1618 20.4553 15.1618 20.6812ZM18.6661 28.702C18.3059 28.8645 17.9119 29.0872 17.7905 29.1966C17.6691 29.3062 16.6175 29.8777 15.4537 30.4667C12.2292 32.0987 11.0619 32.8074 10.3761 33.5503C9.56556 34.4281 9.42605 34.7109 8.10654 38.1477C7.49772 39.7336 6.46205 42.4285 5.80521 44.1364C4.71686 46.966 4.60508 47.3532 4.54584 48.4985C4.49242 49.5338 4.5362 49.904 4.79464 50.5985C5.14926 51.5514 6.05461 52.648 7.17521 53.4816L7.93069 54.0435L9.64917 54.096L11.3677 54.1487V50.6927V47.2369L10.6745 46.79C10.2932 46.5444 9.72783 46.2127 9.41802 46.0532C8.82379 45.7469 8.61642 45.4602 8.83182 45.242C8.90726 45.1655 9.38723 45.3619 9.98204 45.7126C10.5434 46.0437 11.0831 46.3467 11.1813 46.3857C11.3198 46.4409 11.359 45.3929 11.3567 41.711C11.3532 35.9955 11.3186 36.1438 12.855 35.2798C13.2316 35.0679 13.757 34.8993 14.0224 34.905C14.4248 34.9137 14.4566 34.9366 14.2133 35.0425C13.9319 35.165 13.933 35.1699 14.2412 35.18C14.417 35.1856 14.5927 35.1383 14.6315 35.0746C14.6704 35.011 15.216 35.0062 15.8441 35.0641C17.5077 35.2174 19.3744 35.2113 19.6688 35.0516C20.0031 34.8703 22.6043 34.7293 22.6043 34.8924C22.6043 34.9613 22.5223 35.0513 22.4219 35.0924C22.3216 35.1334 22.685 35.1723 23.2296 35.1787C24.1293 35.1893 24.2074 35.1667 24.0832 34.9316C23.9574 34.6935 24.0506 34.6743 25.2455 34.6913C27.2316 34.7195 27.3028 34.7278 27.1868 34.9181C27.1096 35.0447 27.3198 35.0643 27.9918 34.9931C29.2401 34.8609 29.6735 34.5966 28.5145 34.6744L27.6389 34.7333L28.478 34.5754C29.3553 34.4102 30.6305 34.5171 30.6305 34.7558C30.6305 34.8322 30.4703 34.8946 30.2743 34.8946C30.0783 34.8946 29.8775 34.9611 29.8279 35.0425C29.6916 35.266 30.3777 35.2205 30.9787 34.966C31.2756 34.8403 31.6683 34.7824 31.8721 34.8341C32.0853 34.8884 32.2357 34.863 32.2357 34.7728C32.2357 34.5586 32.8355 34.3861 32.9471 34.5681C32.9973 34.6499 33.7935 34.7402 34.7165 34.7688C35.6396 34.7973 36.4356 34.8774 36.4857 34.9468C36.5356 35.0163 36.7136 34.9987 36.8811 34.9078C37.0863 34.7966 37.3779 34.7864 37.7742 34.8766C38.116 34.9543 38.3289 34.9552 38.2821 34.8786C38.2379 34.806 38.4064 34.7467 38.6567 34.7467C38.9639 34.7467 39.0778 34.8023 39.0075 34.9177C38.9334 35.0391 39.0303 35.0629 39.342 34.9997C39.8875 34.8891 40.5186 35.0296 40.2454 35.2007C40.1116 35.2844 40.1732 35.3709 40.4608 35.5037C40.7025 35.6153 40.9759 35.94 41.1451 36.3163C41.3945 36.8709 41.4278 37.3059 41.4345 40.0962C41.4387 41.8302 41.451 43.3822 41.4618 43.5449C41.4725 43.7075 41.4603 44.0735 41.4346 44.3582L41.3879 44.8757L41.2713 44.2842C41.1808 43.826 41.168 43.9188 41.2141 44.6969C41.2468 45.2492 41.3082 45.7579 41.3506 45.8272C41.3929 45.8967 41.8384 45.7292 42.3405 45.4549C43.3532 44.9019 43.691 44.8384 43.8193 45.1774C43.9535 45.5319 43.6638 45.8531 42.5146 46.6241C41.5801 47.2511 41.4412 47.4032 41.3673 47.881C41.3036 48.2929 41.3335 51.2998 41.4251 53.7108C41.4275 53.7719 42.0618 53.8217 42.835 53.8217C44.0183 53.8217 44.324 53.771 44.7685 53.5006C46.7551 52.292 47.79 50.6908 47.7606 48.8707C47.7406 47.6303 47.2848 46.2797 44.4163 38.961C43.9062 37.6597 43.3193 36.1336 43.1121 35.5695C42.6416 34.2885 41.4819 32.9861 40.1185 32.2072C38.8748 31.497 37.0965 30.6064 36.9219 30.6064C36.7066 30.6064 34.8631 29.5869 34.3217 29.1684C33.573 28.5899 33.1031 28.6 32.5222 29.2073C32.2529 29.4888 31.9776 29.7192 31.9103 29.7192C31.8432 29.7192 31.5741 29.9363 31.3123 30.2016C30.5723 30.9514 28.9066 31.5609 27.493 31.5992C26.7235 31.6201 26.3393 31.6869 26.3657 31.7951C26.3889 31.8902 26.2966 31.9254 26.1468 31.8784C26.0043 31.8339 25.4937 31.7586 25.0122 31.7114C23.9043 31.6028 23.2366 31.3915 23.1326 31.1169C23.0878 30.9987 22.9777 30.9022 22.8879 30.9022C22.3464 30.9022 20.7128 29.923 20.0505 29.2015L19.3209 28.4066L18.6661 28.702ZM12.1703 35.1903C12.1207 35.2717 12.1458 35.3382 12.226 35.3382C12.3063 35.3382 12.4125 35.2717 12.4621 35.1903C12.5117 35.109 12.4866 35.0425 12.4064 35.0425C12.3261 35.0425 12.2199 35.109 12.1703 35.1903ZM26.3502 36.0205C25.9015 36.267 24.6595 36.2559 24.4538 36.0036C24.3753 35.9073 24.3083 35.9177 24.2616 36.0332C24.2114 36.1575 24.084 36.1697 23.8349 36.0738C23.6093 35.9869 23.4799 35.9896 23.4799 36.0812C23.4799 36.1605 23.3814 36.2254 23.261 36.2254C23.1406 36.2254 23.0421 36.1507 23.0421 36.0595C23.0421 35.949 22.981 35.9414 22.8597 36.0363C22.6803 36.1768 19.9482 36.1697 15.615 36.0174C13.4269 35.9405 12.8907 36.0341 12.3442 36.5878C12.1103 36.8249 12.0945 37.4489 12.1281 45.1969C12.151 50.5052 12.2167 53.5834 12.3085 53.6407C12.3879 53.6904 13.0788 53.7067 13.8438 53.6768C15.89 53.597 18.8084 53.627 19.3938 53.734C19.7696 53.8027 19.8274 53.7908 19.6127 53.6889C19.207 53.4967 21.4245 53.6202 21.9394 53.8186C22.4283 54.0069 22.7578 54.0168 22.4738 53.8346C22.3523 53.7565 23.3793 53.7059 25.0276 53.7089C26.5441 53.7116 28.6385 53.702 29.6819 53.6875C30.7253 53.6731 32.1372 53.6943 32.8195 53.7348C33.5017 53.7751 35.2419 53.8466 36.6866 53.8933C38.1313 53.9402 39.5925 54.0174 39.9336 54.0648L40.5538 54.151V45.701C40.5538 36.5577 40.5509 36.5209 39.7703 36.0027C39.485 35.8133 39.173 35.7728 38.4082 35.826C37.8627 35.864 37.2193 35.9414 36.9785 35.998C36.7227 36.058 36.6139 36.0478 36.7168 35.9734C36.8212 35.898 36.297 35.8293 35.4294 35.8047C34.6245 35.782 33.8885 35.8247 33.794 35.8998C33.4993 36.134 32.5445 36.2205 32.3462 36.0311C32.2454 35.9347 31.9729 35.8331 31.741 35.8055C31.388 35.7635 31.331 35.8009 31.3915 36.0351C31.4578 36.2921 31.3904 36.3098 30.5729 36.2517C30.0828 36.2168 29.6601 36.13 29.6333 36.0589C29.5684 35.8866 29.0073 35.8982 28.7334 36.0775C28.5641 36.1884 28.6137 36.2242 28.9523 36.2359L29.3901 36.2508L28.9523 36.3864C28.2511 36.6035 27.2861 36.2763 27.8943 36.0276C27.9947 35.9866 27.942 35.9477 27.7775 35.9414C27.6129 35.935 27.4018 36.0073 27.3081 36.1022C27.1782 36.2338 27.1155 36.2162 27.0444 36.0283C26.9317 35.7308 26.8788 35.7302 26.3502 36.0205ZM26.5171 36.3264C26.6224 36.3691 26.7483 36.3638 26.7967 36.3147C26.8452 36.2656 26.7591 36.2307 26.6053 36.2371C26.4353 36.2442 26.4007 36.2792 26.5171 36.3264ZM48.8833 48.8804C48.8904 49.0527 48.9249 49.0877 48.9715 48.9699C49.0137 48.8631 49.0084 48.7355 48.96 48.6864C48.9115 48.6373 48.8771 48.7246 48.8833 48.8804ZM45.787 54.1257C45.4605 54.4139 45.4592 54.4216 45.7626 54.2729C45.9388 54.1865 46.1232 54.0497 46.1725 53.9689C46.316 53.7336 46.1588 53.7976 45.787 54.1257Z" fill="#ffd"/>
</g>
<defs>
<filter id="filter0_d_718_7" x="0" y="0" width="53" height="63" filterUnits="userSpaceOnUse" color-interpolation-filters="sRGB">
<feFlood flood-opacity="0" result="BackgroundImageFix"/>
<feColorMatrix in="SourceAlpha" type="matrix" values="0 0 0 0 0 0 0 0 0 0 0 0 0 0 0 0 0 0 127 0" result="hardAlpha"/>
<feOffset dy="4"/>
<feGaussianBlur stdDeviation="2"/>
<feComposite in2="hardAlpha" operator="out"/>
<feColorMatrix type="matrix" values="0 0 0 0 0 0 0 0 0 0 0 0 0 0 0 0 0 0 0.25 0"/>
<feBlend mode="normal" in2="BackgroundImageFix" result="effect1_dropShadow_718_7"/>
<feBlend mode="normal" in="SourceGraphic" in2="effect1_dropShadow_718_7" result="shape"/>
</filter>
</defs>
</svg>
