<svg width="100" viewBox="0 0 289 541" fill="none" xmlns="http://www.w3.org/2000/svg">
<path d="M211.463 18.454C220.521 9.385 227.994 4.959 239.202 2.022C249.937 -0.789997 262.095 -0.642996 268.5 2.377C275.114 5.496 280.619 12.069 282.423 19C282.991 21.185 282.865 21.122 281.42 18.5C276.398 9.386 267.687 4.626 256 4.608C239.372 4.582 221.61 14.306 212.123 28.628C200.252 46.55 194.714 94.978 197.9 153C199.02 173.399 203.403 226.362 204.457 232.25C204.728 233.762 204.789 235 204.592 235C204.396 235 202.27 231.982 199.867 228.293C191.916 216.082 177.428 202.773 163.576 194.956L157.691 191.635L161.529 190.306C165.957 188.773 168.655 186.569 170.523 182.955C172.518 179.097 176.596 152.747 180.003 121.69C185.396 72.541 189.036 55.927 198.781 36C202.572 28.246 204.903 25.021 211.463 18.454Z" fill="#DDA601"/>
<path d="M105.698 49.5C105.581 27.948 113.644 14.907 129.929 10.309C135.842 8.64 143.695 9.293 148.757 11.876C163.308 19.3 168.311 35.206 170.433 80.796C170.722 87.009 170.574 91.854 170.103 91.564C168.54 90.598 163.92 74.674 161.525 62L159.163 49.5L159.134 57.5C159.102 66.026 160.703 73.149 167.452 94.5C170.807 105.116 171.3 108 171.729 119.5C172.288 134.519 170.606 148.888 165.792 170.233L162.695 183.967L159.598 184.418C157.894 184.667 149.061 185.366 139.969 185.971C130.878 186.577 122.422 187.338 121.179 187.664C118.94 188.249 118.926 188.189 119.709 181.377C121.005 170.106 120.414 145.404 118.551 133C117.602 126.675 114.87 111.375 112.482 99C106.912 70.139 105.765 61.767 105.698 49.5Z" fill="#DDA601"/>
<path d="M265.753 140.41C276.678 116.091 284.268 84.42 286.521 53.75C286.915 48.388 287.478 44 287.771 44C288.8 44 287.055 77.606 285.487 88C279.313 128.914 262.999 167.705 242.142 191.062C237.927 195.782 236.712 198.129 234.117 206.562C230.397 218.651 227.702 230.815 225.429 245.774C224.486 251.975 223.536 256.869 223.317 256.651C223.099 256.432 222.936 249.334 222.956 240.876C222.994 224.919 224.453 212.403 228.106 196.689C230.111 188.062 230.522 187.255 234.835 183.5C248.735 171.396 257.019 159.85 265.753 140.41Z" fill="#DDA601"/>
<path d="M215.552 178.5C217.977 159.618 229.124 141.539 246.4 128.467C250.283 125.53 253.629 123.296 253.837 123.504C254.045 123.711 250.991 127.539 247.051 132.01C232.64 148.366 223.609 162.06 217.806 176.362L214.91 183.5L215.552 178.5Z" fill="#DDA601"/>
<path d="M69.035 209.825C87.528 200.69 109.604 194.608 130 193.027C135.225 192.622 140.314 192.225 141.309 192.145C142.304 192.065 142.84 192.45 142.5 193C142.16 193.55 141.241 194 140.457 194C137.708 194 121.44 201.612 115.5 205.677C107.375 211.238 99.273 219.664 94.772 227.232C92.722 230.679 90.618 234.175 90.097 235C89.576 235.825 89.724 234.25 90.425 231.5C92.089 224.969 95.697 217.979 101.393 210.247C103.927 206.808 106 203.82 106 203.606C106 202.763 80.073 211.407 73.367 214.487C66.981 217.419 66.105 218.167 65.009 221.631C61.981 231.2 56.524 239.461 42.704 255.398C33.871 265.584 30.156 270.725 25.287 279.5C22.983 283.652 22.169 284.576 22.644 282.5C24.433 274.689 29.621 265.117 39.758 250.922C51.115 235.019 55.099 228.13 57.93 219.5C59.544 214.58 59.721 214.425 69.035 209.825Z" fill="#DDA601"/>
<path d="M113.667 237.463C115.93 230.823 123.211 223.607 129.64 221.632C135.235 219.914 143.807 219.583 146 221C147.114 221.72 146.525 221.973 143.71 221.985C139.124 222.003 132.931 225.001 130.135 228.555C127.349 232.098 124.391 240.333 123.511 247C122.417 255.286 118.31 258.401 113.829 254.345C111.456 252.198 111.38 244.177 113.667 237.463Z" fill="#DDA601"/>
<path d="M130.111 245.081C131.398 235.739 132.559 233.208 136.898 230.287C138.767 229.029 141.551 228 143.085 228C145.713 228 145.841 228.202 145.308 231.492C144.963 233.615 145.232 235.574 145.993 236.492C147.629 238.462 151.879 238.42 154.099 236.41C155.727 234.937 155.971 235.043 157.428 237.861C158.293 239.533 159 243.218 159 246.05C159 250.573 158.586 251.614 155.6 254.6C151.676 258.524 149.942 258.716 139.03 256.44C134.922 255.583 130.724 255.1 129.701 255.368C128.316 255.73 127.998 255.447 128.455 254.258C128.792 253.38 129.537 249.25 130.111 245.081Z" fill="#DDA601"/>
<path d="M162.092 255.352C164.46 251.519 165.059 245.467 163.661 239.5L162.958 236.5L165.93 239.711C172.451 246.756 171.918 255.814 164.536 263.41C157.618 270.528 147.501 271.6 137.7 266.254L134.5 264.509L143 263.953C153.177 263.287 158.735 260.783 162.092 255.352Z" fill="#DDA601"/>
<path d="M220.485 302.194C221.869 283.523 222.569 277.762 223.697 275.75C224.674 274.009 224.885 275.483 224.915 284.25C224.933 289.337 225.629 301.15 226.461 310.5C228.66 335.186 228.558 337.728 225.16 343.087C218.715 353.249 203.813 362.664 187 367.198C179.762 369.149 176.05 369.49 162 369.495C144.159 369.5 137.382 368.312 127.52 363.447C124.759 362.086 123.4 361.241 124.5 361.571C161.918 372.794 211.91 354.77 217.789 327.938C218.444 324.947 219.658 313.362 220.485 302.194Z" fill="#DDA601"/>
<path d="M64.615 283.94C65.755 282.801 68.869 281.513 71.587 281.058C78.783 279.853 79.133 279.877 83.5 281.867C88.958 284.355 93.447 288.315 95.346 292.316C96.217 294.153 98.438 300.628 100.281 306.707C103.012 315.715 104.607 319.074 108.911 324.88C116.521 335.145 117.094 343.407 110.701 350.688C106.086 355.944 100.436 358.131 91.382 358.167C87.247 358.183 83.594 357.927 83.265 357.598C82.936 357.269 85.486 357 88.932 357C100.399 357 105.5 352.536 105.5 342.5C105.5 337.601 104.897 335.399 102.214 330.5C95.459 318.169 94.102 314.501 93.007 305.624C91.378 292.418 88.326 287.437 80.075 284.526C74.659 282.616 69.089 282.618 66.559 284.532C63.655 286.728 62.254 286.302 64.615 283.94Z" fill="#DDA601"/>
<path d="M0.631969 319.5C0.652969 307.84 2.06197 303.249 8.05497 295.312C12.915 288.874 15.136 288.217 10.92 294.463C2.80096 306.494 3.65396 333.991 12.506 345.596C16.461 350.782 14.821 350.874 9.70096 345.753C3.07096 339.124 0.610969 332 0.631969 319.5Z" fill="#DDA601"/>
<path d="M32.813 311.036C37.041 308.878 43.425 305.303 47 303.092C50.575 300.88 53.641 299.055 53.814 299.035C53.987 299.016 53.087 300.858 51.814 303.129C50.541 305.4 46.125 310.237 42.001 313.879C31.88 322.814 31.868 322.832 32.507 327.5C33.276 333.108 36.853 343.633 38.437 344.948C39.166 345.553 42.311 346.711 45.425 347.523C50.58 348.865 61.163 353.702 56.5 352.584C55.4 352.32 50.844 351.562 46.376 350.899C38.547 349.736 35.539 349.999 28.5 352.461C27.292 352.884 28.004 351.826 30.298 349.791L34.095 346.42L30.874 337.985C29.102 333.345 24.891 325.488 21.516 320.524C18.141 315.561 15.052 310.952 14.651 310.283C14.251 309.614 16.444 310.392 19.524 312.013L25.126 314.959L32.813 311.036Z" fill="#DDA601"/>
<path d="M72.675 317.753C69.812 320.617 65.424 316.604 68.011 313.487C69.749 311.392 71.737 311.64 73.062 314.117C73.958 315.789 73.876 316.552 72.675 317.753Z" fill="#DDA601"/>
<path d="M161.5 337.045C188.215 335.19 200.951 331.835 207.588 324.908C209.121 323.308 210.492 322 210.635 322C211.565 322 208.448 328.213 206.074 331.094C199.524 339.041 186.498 343.358 169 343.383C156.98 343.4 140.197 340.566 143.068 339.004C143.856 338.576 152.15 337.695 161.5 337.045Z" fill="#DDA601"/>
<path d="M56.226 330.371C53.902 328.905 53.688 327.455 55.525 325.618C56.749 324.394 57.605 324.254 59.069 325.037C61.412 326.291 61.55 328.298 59.416 330.07C58.296 330.999 57.362 331.087 56.226 330.371Z" fill="#DDA601"/>
<path d="M80.246 337.82C77.788 338.169 76.393 336.025 77.389 333.43C77.75 332.488 78.893 331.988 80.246 332.18C81.898 332.415 82.5 333.167 82.5 335C82.5 336.833 81.898 337.585 80.246 337.82Z" fill="#DDA601"/>
<path d="M257.108 503.032C232.743 466.485 221.258 416.527 226.143 368.338C226.772 362.135 227.672 357.298 228.143 357.589C228.615 357.88 229 359.345 229 360.844C229 362.343 230.105 370.305 231.456 378.537C240.457 433.382 257.259 484.442 278.747 522.25C282.108 528.163 284.509 533 284.083 533C282.109 533 262.747 511.49 257.108 503.032Z" fill="#DDA601"/>
<path d="M67.598 366.858C90.117 367.219 102.063 366.286 109.762 363.567C113.001 362.422 113.877 362.463 116.327 363.873C121.923 367.094 121.594 367.726 113.306 369.669C102.123 372.292 69.147 372.268 57.047 369.629C52.398 368.615 47.812 367.496 46.855 367.142C45.898 366.788 55.232 366.66 67.598 366.858Z" fill="#DDA601"/>
<path d="M76.039 480.5C79.533 443.441 92.417 412.958 115.32 387.563C119.072 383.403 122.377 380 122.666 380C122.955 380 121.718 382.587 119.918 385.75C96.489 426.907 84.737 454.65 77.665 485.5C74.855 497.756 74.511 496.699 76.039 480.5Z" fill="#DDA601"/>
<path d="M31 403.578C39.708 394.542 52.634 387.225 66.5 383.482C71.966 382.006 84.653 381.521 79.855 382.971C75.902 384.166 66.211 389.568 60.073 393.998C54.649 397.912 54.647 397.915 57.229 398.897C58.651 399.437 62.547 400.189 65.887 400.567C69.228 400.945 71.771 401.561 71.539 401.936C71.307 402.312 67.345 404.924 62.734 407.742C58.123 410.56 51.909 414.808 48.925 417.183L43.5 421.5L52.295 422L61.089 422.5L54.022 433.5C32.341 467.247 23.12 494.005 21.111 529L20.451 540.5L18.724 531.5C16.554 520.198 16.451 499.409 18.507 487.622C21.623 469.753 29.916 449.147 39.585 435.25C41.976 431.813 43.368 429 42.677 429C39.295 429 29.071 432.37 25.684 434.602L21.868 437.116L23.067 434.808C26.045 429.077 33.442 419.864 40.778 412.75L48.77 405H44.103C39.832 405 32.493 406.548 27.5 408.501C26.4 408.932 27.975 406.716 31 403.578Z" fill="#DDA601"/>
</svg>
